<?xml version="1.0" standalone="no"?>
<!DOCTYPE svg PUBLIC "-//W3C//DTD SVG 20010904//EN"
 "http://www.w3.org/TR/2001/REC-SVG-20010904/DTD/svg10.dtd">
<svg version="1.0" xmlns="http://www.w3.org/2000/svg"
 width="2000.000000pt" height="2000.000000pt" viewBox="0 0 2000.000000 2000.000000"
 preserveAspectRatio="xMidYMid meet">
<metadata>
Created by potrace 1.14, written by Peter Selinger 2001-2017
</metadata>
<g transform="translate(0.000000,2000.000000) scale(0.100000,-0.100000)"
fill="#000000" stroke="none">
<path d="M0 10000 l0 -10000 10000 0 10000 0 0 10000 0 10000 -10000 0 -10000
0 0 -10000z m9992 5090 c254 -10 390 -22 588 -51 724 -105 1348 -345 1993
-765 718 -469 1276 -1103 1678 -1905 289 -579 463 -1213 515 -1881 l6 -88
-680 0 -681 0 -5 33 c-2 17 -12 97 -21 177 -84 755 -416 1488 -937 2067 -389
433 -1003 826 -1558 996 -686 212 -1468 218 -2156 16 -600 -175 -1228 -571
-1645 -1035 -544 -606 -860 -1322 -940 -2131 l-12 -123 -675 0 -675 0 7 98
c84 1183 517 2202 1288 3028 332 356 712 655 1166 915 721 414 1502 628 2372
652 52 2 106 4 120 5 14 1 127 -3 252 -8z m103 -3435 c351 -61 643 -213 895
-465 288 -287 446 -630 482 -1042 56 -650 -296 -1288 -880 -1595 -657 -345
-1469 -210 -1977 329 -358 381 -517 905 -429 1419 124 725 720 1285 1454 1368
113 13 343 6 455 -14z m-3787 -2803 c242 -780 764 -1476 1444 -1925 496 -328
1011 -511 1623 -579 182 -20 683 -17 865 5 681 84 1233 306 1760 707 380 290
683 643 931 1085 123 220 244 501 313 728 l27 87 754 0 755 0 0 -1617 c0
-1807 5 -1676 -73 -1833 -77 -158 -221 -272 -404 -322 -116 -31 -328 -31 -438
0 -187 54 -327 165 -403 322 -78 158 -75 133 -81 813 l-6 609 -50 -69 c-219
-298 -535 -619 -850 -863 -875 -677 -1954 -991 -3160 -920 -1208 72 -2214 512
-3054 1335 -412 404 -730 842 -972 1340 -111 230 -169 372 -246 605 -55 164
-135 464 -148 553 l-7 47 693 0 694 0 33 -108z"/>
<path d="M9660 10866 c-284 -60 -500 -231 -619 -488 -60 -129 -76 -202 -76
-358 0 -141 12 -205 57 -320 55 -140 172 -289 293 -376 78 -55 208 -116 300
-140 96 -25 313 -26 405 -1 268 72 467 236 579 479 60 129 76 202 76 358 0
141 -12 205 -57 320 -55 140 -172 289 -293 376 -77 54 -207 116 -295 139 -88
23 -286 28 -370 11z"/>
</g>
</svg>
